<svg xmlns="http://www.w3.org/2000/svg" viewBox="0 0 256 256">
  <path fill="#000000" fill-rule="evenodd" d="M 143.00 199.50 L 145.00 199.50 L 147.00 199.50 L 149.00 199.50 L 151.00 199.50 L 152.50 199.00 L 154.00 198.50 L 155.00 197.50 L 156.50 197.00 L 157.50 196.00 L 158.50 195.00 L 159.50 194.00 L 160.00 192.50 L 160.50 191.00 L 161.50 190.00 L 161.50 188.00 L 161.50 186.00 L 161.50 184.00 L 161.00 182.50 L 160.50 181.00 L 159.50 181.00 L 158.50 182.00 L 157.50 183.00 L 156.50 184.00 L 155.50 185.00 L 154.00 185.50 L 152.00 185.50 L 151.00 184.50 L 150.50 183.00 L 149.50 182.00 L 149.50 180.00 L 150.50 179.00 L 151.50 178.00 L 152.50 177.00 L 154.00 176.50 L 154.00 175.50 L 152.00 175.50 L 151.00 174.50 L 149.50 174.00 L 148.00 173.50 L 147.50 175.00 L 147.00 176.50 L 146.50 178.00 L 145.50 179.00 L 145.00 180.50 L 144.00 181.50 L 143.50 183.00 L 142.50 184.00 L 141.50 185.00 L 140.50 186.00 L 139.50 187.00 L 138.50 188.00 L 137.50 189.00 L 137.50 191.00 L 138.00 192.50 L 138.50 194.00 L 139.50 195.00 L 140.00 196.50 L 141.00 197.50 L 142.00 198.50 L 143.00 199.50 Z M 123.00 197.50 L 124.50 197.00 L 126.00 196.50 L 127.00 195.50 L 128.00 194.50 L 129.00 193.50 L 130.00 192.50 L 130.50 191.00 L 132.00 190.50 L 133.50 190.00 L 134.50 189.00 L 134.50 187.00 L 135.50 186.00 L 137.00 185.50 L 138.00 184.50 L 139.00 183.50 L 140.50 183.00 L 141.50 182.00 L 142.50 181.00 L 143.00 179.50 L 144.00 178.50 L 145.00 177.50 L 145.50 176.00 L 146.50 175.00 L 145.50 174.00 L 145.50 172.00 L 146.50 171.00 L 147.50 170.00 L 149.00 169.50 L 150.50 169.00 L 151.50 168.00 L 151.00 166.50 L 150.50 165.00 L 150.50 163.00 L 149.00 162.50 L 147.50 162.00 L 146.00 161.50 L 144.50 161.00 L 144.50 159.00 L 143.50 158.00 L 143.50 156.00 L 142.50 155.00 L 142.00 153.50 L 141.50 152.00 L 140.50 151.00 L 139.50 150.00 L 139.00 148.50 L 138.50 147.00 L 138.50 145.00 L 138.50 143.00 L 138.50 141.00 L 138.50 139.00 L 138.50 137.00 L 138.50 135.00 L 138.50 133.00 L 139.50 132.00 L 140.00 130.50 L 140.50 129.00 L 141.50 128.00 L 141.50 126.00 L 142.50 125.00 L 143.00 123.50 L 143.50 122.00 L 144.50 121.00 L 145.00 119.50 L 145.50 118.00 L 146.00 116.50 L 146.50 115.00 L 147.50 114.00 L 148.00 112.50 L 148.50 111.00 L 149.50 110.00 L 149.50 108.00 L 150.50 107.00 L 150.50 105.00 L 151.50 104.00 L 151.50 102.00 L 151.50 100.00 L 152.50 99.00 L 152.50 97.00 L 152.50 95.00 L 152.50 93.00 L 153.50 92.00 L 153.50 90.00 L 153.50 88.00 L 153.50 86.00 L 153.50 84.00 L 153.50 82.00 L 153.50 80.00 L 152.50 79.00 L 152.00 77.50 L 151.50 76.00 L 150.50 75.00 L 150.00 73.50 L 149.50 72.00 L 148.50 71.00 L 150.00 70.50 L 151.00 69.50 L 152.00 68.50 L 154.00 68.50 L 156.00 68.50 L 157.50 68.00 L 157.50 66.00 L 156.50 65.00 L 156.50 63.00 L 155.50 62.00 L 154.50 61.00 L 155.00 59.50 L 156.50 59.00 L 158.00 58.50 L 159.50 58.00 L 161.00 57.50 L 162.00 56.50 L 164.00 56.50 L 165.00 55.50 L 166.50 55.00 L 168.00 54.50 L 169.50 54.00 L 171.00 53.50 L 172.00 52.50 L 174.00 52.50 L 175.00 51.50 L 177.00 51.50 L 178.50 51.00 L 180.00 50.50 L 182.00 50.50 L 184.00 50.50 L 184.00 49.50 L 183.00 48.50 L 181.00 48.50 L 179.00 48.50 L 177.00 48.50 L 175.00 48.50 L 174.00 47.50 L 172.00 47.50 L 170.00 47.50 L 168.00 47.50 L 166.00 47.50 L 165.00 48.50 L 163.00 48.50 L 161.00 48.50 L 159.50 49.00 L 158.00 49.50 L 156.50 50.00 L 155.00 50.50 L 153.50 51.00 L 152.00 51.50 L 151.00 52.50 L 149.50 53.00 L 148.00 53.50 L 146.50 54.00 L 145.00 54.50 L 144.00 55.50 L 142.50 56.00 L 141.00 56.50 L 140.00 57.50 L 138.50 58.00 L 137.00 58.50 L 136.00 59.50 L 134.00 59.50 L 133.00 60.50 L 131.50 61.00 L 130.00 61.50 L 129.00 62.50 L 127.00 62.50 L 126.00 63.50 L 124.50 64.00 L 123.00 64.50 L 122.00 65.50 L 120.00 65.50 L 119.00 66.50 L 117.50 67.00 L 116.00 67.50 L 114.50 68.00 L 113.00 68.50 L 112.00 69.50 L 110.50 70.00 L 109.00 70.50 L 107.50 71.00 L 106.00 71.50 L 104.50 72.00 L 103.00 72.50 L 102.00 73.50 L 100.00 73.50 L 99.00 74.50 L 97.50 75.00 L 96.00 75.50 L 94.50 76.00 L 93.00 76.50 L 91.50 77.00 L 90.00 77.50 L 89.00 78.50 L 87.00 78.50 L 86.00 79.50 L 84.00 79.50 L 83.00 80.50 L 81.50 81.00 L 80.00 81.50 L 79.00 82.50 L 77.50 83.00 L 76.50 84.00 L 75.50 85.00 L 74.50 86.00 L 74.50 88.00 L 74.50 90.00 L 76.00 90.50 L 77.00 91.50 L 79.00 91.50 L 81.00 91.50 L 83.00 91.50 L 84.00 90.50 L 86.00 90.50 L 87.00 89.50 L 88.50 89.00 L 90.00 88.50 L 91.00 87.50 L 92.50 87.00 L 94.00 86.50 L 95.00 85.50 L 96.00 84.50 L 97.50 85.00 L 98.50 86.00 L 99.50 87.00 L 99.50 89.00 L 100.50 90.00 L 101.50 91.00 L 102.50 92.00 L 103.00 93.50 L 103.50 95.00 L 104.00 96.50 L 104.50 98.00 L 106.00 98.50 L 107.00 97.50 L 109.00 97.50 L 109.50 99.00 L 110.50 100.00 L 110.50 102.00 L 111.50 103.00 L 112.50 104.00 L 114.00 104.50 L 115.00 105.50 L 116.00 106.50 L 117.50 107.00 L 118.50 108.00 L 120.00 108.50 L 120.00 109.50 L 119.00 110.50 L 118.00 111.50 L 117.50 113.00 L 116.50 114.00 L 116.00 115.50 L 115.50 117.00 L 114.50 118.00 L 113.50 119.00 L 113.50 121.00 L 112.50 122.00 L 111.50 123.00 L 111.00 124.50 L 110.50 126.00 L 109.50 127.00 L 109.00 128.50 L 108.00 129.50 L 107.00 130.50 L 105.50 131.00 L 105.50 133.00 L 105.50 135.00 L 105.50 137.00 L 105.50 139.00 L 105.50 141.00 L 106.50 142.00 L 106.50 144.00 L 106.50 146.00 L 107.50 147.00 L 107.50 149.00 L 108.00 150.50 L 108.50 152.00 L 109.50 153.00 L 109.50 155.00 L 110.50 156.00 L 111.00 157.50 L 111.50 159.00 L 112.50 160.00 L 113.00 161.50 L 113.50 163.00 L 114.50 164.00 L 114.50 166.00 L 115.50 167.00 L 116.00 168.50 L 116.50 170.00 L 117.00 171.50 L 117.50 173.00 L 117.50 175.00 L 116.50 176.00 L 116.50 178.00 L 116.50 180.00 L 117.00 181.50 L 117.50 183.00 L 118.00 184.50 L 119.00 185.50 L 120.00 186.50 L 121.50 187.00 L 120.00 187.50 L 119.00 188.50 L 117.50 189.00 L 116.50 190.00 L 115.50 191.00 L 114.50 192.00 L 113.50 193.00 L 114.00 194.50 L 115.50 195.00 L 117.00 195.50 L 118.50 196.00 L 120.00 196.50 L 122.00 196.50 L 123.00 197.50 Z M 156.00 176.50 L 157.50 176.00 L 156.50 175.00 L 155.50 175.00 L 156.00 176.50 Z M 131.00 96.50 L 130.00 95.50 L 129.00 94.50 L 128.00 93.50 L 126.50 93.00 L 126.50 91.00 L 126.50 89.00 L 125.50 88.00 L 125.50 86.00 L 125.00 84.50 L 123.00 84.50 L 122.00 83.50 L 121.00 82.50 L 120.00 81.50 L 120.00 80.50 L 122.00 80.50 L 122.50 79.00 L 123.50 79.00 L 123.50 81.00 L 124.50 81.00 L 125.50 80.00 L 125.50 78.00 L 125.50 76.00 L 124.50 75.00 L 123.50 74.00 L 124.00 72.50 L 125.00 71.50 L 127.00 71.50 L 128.00 70.50 L 129.50 71.00 L 129.00 72.50 L 128.50 74.00 L 129.00 75.50 L 129.50 77.00 L 130.50 78.00 L 130.50 80.00 L 131.50 81.00 L 131.50 83.00 L 132.00 84.50 L 133.00 85.50 L 134.00 86.50 L 134.00 87.50 L 133.50 89.00 L 132.50 90.00 L 133.00 91.50 L 133.50 93.00 L 134.50 94.00 L 133.50 95.00 L 133.00 96.50 L 131.00 96.50 Z M 116.00 80.50 L 115.00 79.50 L 113.50 79.00 L 115.00 78.50 L 116.50 79.00 L 117.50 80.00 L 116.00 80.50 Z M 143.00 66.50 L 143.00 65.50 L 144.00 64.50 L 145.00 63.50 L 146.50 63.00 L 148.00 62.50 L 149.50 63.00 L 149.00 64.50 L 147.00 64.50 L 146.00 65.50 L 144.00 65.50 L 143.00 66.50 Z"/>
</svg>
